<svg width="20" height="20" viewBox="0 0 20 20" fill="none" xmlns="http://www.w3.org/2000/svg">
<path fill-rule="evenodd" clip-rule="evenodd" d="M17 4.25C17 3.65326 16.7629 3.08097 16.341 2.65901C15.919 2.23705 15.3467 2 14.75 2H9.25C8.65326 2 8.08097 2.23705 7.65901 2.65901C7.23705 3.08097 7 3.65326 7 4.25V6.25C7 6.44891 7.07902 6.63968 7.21967 6.78033C7.36032 6.92098 7.55109 7 7.75 7C7.94891 7 8.13968 6.92098 8.28033 6.78033C8.42098 6.63968 8.5 6.44891 8.5 6.25V4.25C8.5 4.05109 8.57902 3.86032 8.71967 3.71967C8.86032 3.57902 9.05109 3.5 9.25 3.5H14.75C14.9489 3.5 15.1397 3.57902 15.2803 3.71967C15.421 3.86032 15.5 4.05109 15.5 4.25V15.75C15.5 15.9489 15.421 16.1397 15.2803 16.2803C15.1397 16.421 14.9489 16.5 14.75 16.5H9.25C9.05109 16.5 8.86032 16.421 8.71967 16.2803C8.57902 16.1397 8.5 15.9489 8.5 15.75V13.75C8.5 13.5511 8.42098 13.3603 8.28033 13.2197C8.13968 13.079 7.94891 13 7.75 13C7.55109 13 7.36032 13.079 7.21967 13.2197C7.07902 13.3603 7 13.5511 7 13.75V15.75C7 16.3467 7.23705 16.919 7.65901 17.341C8.08097 17.7629 8.65326 18 9.25 18H14.75C15.3467 18 15.919 17.7629 16.341 17.341C16.7629 16.919 17 16.3467 17 15.75V4.25Z" fill="#fff"/>
<path fill-rule="evenodd" clip-rule="evenodd" d="M1 10C1 9.80109 1.07902 9.61032 1.21967 9.46967C1.36032 9.32902 1.55109 9.25 1.75 9.25H11.296L10.248 8.307C10.1725 8.24174 10.1107 8.16207 10.0664 8.07265C10.022 7.98322 9.996 7.88584 9.98978 7.78622C9.98356 7.6866 9.99729 7.58674 10.0302 7.4925C10.063 7.39825 10.1144 7.31151 10.1812 7.23737C10.248 7.16322 10.329 7.10316 10.4193 7.06071C10.5096 7.01825 10.6075 6.99425 10.7073 6.99012C10.807 6.98599 10.9066 7.00181 11.0001 7.03664C11.0936 7.07148 11.1793 7.12464 11.252 7.193L13.752 9.443C13.83 9.51332 13.8923 9.59924 13.935 9.69519C13.9777 9.79114 13.9998 9.89499 13.9998 10C13.9998 10.105 13.9777 10.2089 13.935 10.3048C13.8923 10.4008 13.83 10.4867 13.752 10.557L11.252 12.807C11.1793 12.8754 11.0936 12.9285 11.0001 12.9634C10.9066 12.9982 10.807 13.014 10.7073 13.0099C10.6075 13.0057 10.5096 12.9817 10.4193 12.9393C10.329 12.8968 10.248 12.8368 10.1812 12.7626C10.1144 12.6885 10.063 12.6017 10.0302 12.5075C9.99729 12.4133 9.98356 12.3134 9.98978 12.2138C9.996 12.1142 10.022 12.0168 10.0664 11.9274C10.1107 11.8379 10.1725 11.7583 10.248 11.693L11.296 10.75H1.75C1.65151 10.75 1.55398 10.7306 1.46299 10.6929C1.37199 10.6552 1.28931 10.6 1.21967 10.5303C1.15003 10.4607 1.09478 10.378 1.05709 10.287C1.0194 10.196 1 10.0985 1 10Z" fill="#fff"/>
</svg>
