<svg width="20" height="20" viewBox="0 0 20 20" fill="none" xmlns="http://www.w3.org/2000/svg">
<path d="M2.22015 2.22007C2.36077 2.07962 2.5514 2.00073 2.75015 2.00073C2.9489 2.00073 3.13952 2.07962 3.28015 2.22007L10.0631 9.00207C10.3061 9.01741 10.5351 9.12084 10.7072 9.29298C10.8794 9.46511 10.9828 9.69412 10.9981 9.93707L17.7801 16.7201C17.8538 16.7887 17.9129 16.8715 17.9539 16.9635C17.9949 17.0555 18.017 17.1548 18.0187 17.2556C18.0205 17.3563 18.002 17.4563 17.9643 17.5497C17.9265 17.6431 17.8704 17.7279 17.7992 17.7991C17.728 17.8703 17.6431 17.9265 17.5497 17.9642C17.4564 18.0019 17.3563 18.0204 17.2556 18.0187C17.1549 18.0169 17.0556 17.9948 16.9636 17.9539C16.8716 17.9129 16.7888 17.8538 16.7201 17.7801L9.93715 10.9981C9.6942 10.9827 9.46519 10.8793 9.29305 10.7072C9.12092 10.535 9.01749 10.306 9.00215 10.0631L2.22015 3.28007C2.0797 3.13945 2.00081 2.94882 2.00081 2.75007C2.00081 2.55132 2.0797 2.3607 2.22015 2.22007ZM3.63615 16.3641C2.22545 14.9529 1.32347 13.1131 1.07187 11.1337C0.820281 9.15422 1.23333 7.14728 2.24615 5.42807L3.34915 6.53007C2.61139 7.94561 2.34432 9.55954 2.58674 11.1373C2.82917 12.715 3.56846 14.1743 4.69715 15.3031C4.83784 15.4438 4.91689 15.6346 4.91689 15.8336C4.91689 16.0325 4.83784 16.2234 4.69715 16.3641C4.55645 16.5048 4.36562 16.5838 4.16665 16.5838C3.96767 16.5838 3.77684 16.5048 3.63615 16.3641ZM6.46415 13.5361C5.80919 12.8813 5.34896 12.0574 5.13478 11.1564C4.9206 10.2554 4.96089 9.31255 5.25115 8.43307L6.51315 9.69507C6.46813 10.2043 6.53543 10.7172 6.71029 11.1975C6.88516 11.6779 7.16332 12.114 7.52515 12.4751C7.65763 12.6172 7.72975 12.8053 7.72632 12.9996C7.72289 13.1939 7.64418 13.3793 7.50677 13.5167C7.36936 13.6541 7.18397 13.7328 6.98967 13.7362C6.79537 13.7397 6.60732 13.6676 6.46515 13.5351L6.46415 13.5361ZM16.3641 3.63607C17.7751 5.04732 18.6772 6.8873 18.9288 8.86695C19.1804 10.8466 18.7672 12.8538 17.7541 14.5731L16.6511 13.4691C17.3887 12.0536 17.6556 10.4399 17.4132 8.8624C17.1708 7.28487 16.4316 5.82575 15.3031 4.69707C15.2335 4.62741 15.1782 4.5447 15.1405 4.45368C15.1028 4.36265 15.0834 4.2651 15.0834 4.16657C15.0834 4.06805 15.1028 3.97049 15.1405 3.87947C15.1782 3.78844 15.2335 3.70574 15.3031 3.63607C15.3728 3.56641 15.4555 3.51114 15.5465 3.47344C15.6376 3.43574 15.7351 3.41633 15.8336 3.41633C15.9322 3.41633 16.0297 3.43574 16.1208 3.47344C16.2118 3.51114 16.2945 3.56641 16.3641 3.63607ZM13.5361 6.46407C14.1911 7.11887 14.6513 7.94271 14.8655 8.84375C15.0797 9.74478 15.0394 10.6876 14.7491 11.5671L13.4871 10.3051C13.5322 9.79587 13.4649 9.28299 13.29 8.80264C13.1151 8.32229 12.837 7.88617 12.4751 7.52507C12.3427 7.3829 12.2705 7.19485 12.274 7.00055C12.2774 6.80625 12.3561 6.62086 12.4935 6.48345C12.6309 6.34604 12.8163 6.26733 13.0106 6.2639C13.2049 6.26047 13.393 6.33259 13.5351 6.46507L13.5361 6.46407Z" fill="#F3F4F6"/>
</svg>
