<svg width="16" height="16" viewBox="0 0 16 16" fill="none" xmlns="http://www.w3.org/2000/svg">
<path fill-rule="evenodd" clip-rule="evenodd" d="M7.64645 1.14645C7.84171 0.951184 8.15829 0.951184 8.35355 1.14645L10.3536 3.14645C10.5488 3.34171 10.5488 3.65829 10.3536 3.85355C10.1583 4.04882 9.84171 4.04882 9.64645 3.85355L8.5 2.70711V10C8.5 10.2761 8.27614 10.5 8 10.5C7.72386 10.5 7.5 10.2761 7.5 10V2.70711L6.35355 3.85355C6.15829 4.04882 5.84171 4.04882 5.64645 3.85355C5.45118 3.65829 5.45118 3.34171 5.64645 3.14645L7.64645 1.14645ZM3.58579 5.58579C3.96086 5.21071 4.46957 5 5 5H6C6.27614 5 6.5 5.22386 6.5 5.5C6.5 5.77614 6.27614 6 6 6H5C4.73478 6 4.48043 6.10536 4.29289 6.29289C4.10536 6.48043 4 6.73478 4 7V13C4 13.2652 4.10536 13.5196 4.29289 13.7071C4.48043 13.8946 4.73478 14 5 14H11C11.2652 14 11.5196 13.8946 11.7071 13.7071C11.8946 13.5196 12 13.2652 12 13V7C12 6.73478 11.8946 6.48043 11.7071 6.29289C11.5196 6.10536 11.2652 6 11 6H10C9.72386 6 9.5 5.77614 9.5 5.5C9.5 5.22386 9.72386 5 10 5H11C11.5304 5 12.0391 5.21071 12.4142 5.58579C12.7893 5.96086 13 6.46957 13 7V13C13 13.5304 12.7893 14.0391 12.4142 14.4142C12.0391 14.7893 11.5304 15 11 15H5C4.46957 15 3.96086 14.7893 3.58579 14.4142C3.21071 14.0391 3 13.5304 3 13V7C3 6.46957 3.21071 5.96086 3.58579 5.58579Z" fill="white"/>
</svg>
