<svg width="28" height="28" viewBox="0 0 28 28" fill="none" xmlns="http://www.w3.org/2000/svg">
<path d="M5.24997 20.3232L6.50997 21.5832L3.82664 24.2432C3.49997 24.5815 2.91664 24.5815 2.58997 24.2432C2.2633 23.9048 2.25164 23.3332 2.58997 23.0065L5.24997 20.3232ZM21.3383 6.32317V4.6665L14 12.0048L6.66164 4.6665V6.32317L13.1716 12.8332L8.74997 17.2782C7.3733 16.2982 5.45997 16.4148 4.23497 17.6398L9.1933 22.5982C10.4183 21.3732 10.535 19.4598 9.56664 18.0832L21.3383 6.32317ZM25.41 23.0065L22.75 20.3232L21.49 21.5832L24.1733 24.2432C24.5 24.5815 25.0833 24.5815 25.41 24.2432C25.7366 23.9048 25.7483 23.3332 25.41 23.0065ZM19.25 17.2782L15.6566 13.6615L14.8283 14.4898L18.445 18.0832C17.465 19.4598 17.5816 21.3732 18.8066 22.5982L23.765 17.6398C22.54 16.4148 20.6266 16.2982 19.25 17.2782Z" fill="white"/>
</svg>
