<svg width="156" height="32" viewBox="0 0 156 32" fill="none" xmlns="http://www.w3.org/2000/svg">
<path d="M12 16H0V28H12V16Z" fill="#ffffff"/>
<path d="M24 4H12V16H24V4Z" fill="#ffffff"/>
<path d="M36 16H24V28H36V16Z" fill="#ffffff"/>
<path d="M62.008 24.36C60.216 24.36 58.632 24.008 57.256 23.304C55.88 22.584 54.816 21.568 54.064 20.256C53.312 18.944 52.936 17.4 52.936 15.624C52.936 13.848 53.312 12.304 54.064 10.992C54.816 9.664 55.88 8.648 57.256 7.944C58.632 7.224 60.216 6.864 62.008 6.864C64.328 6.864 66.264 7.392 67.816 8.448V11.904C67.112 11.312 66.304 10.888 65.392 10.632C64.496 10.36 63.472 10.224 62.32 10.224C60.576 10.224 59.192 10.712 58.168 11.688C57.16 12.648 56.656 13.96 56.656 15.624C56.656 17.304 57.168 18.632 58.192 19.608C59.216 20.568 60.592 21.048 62.32 21.048C63.504 21.048 64.552 20.912 65.464 20.64C66.376 20.352 67.224 19.896 68.008 19.272V22.728C66.536 23.816 64.536 24.36 62.008 24.36ZM70.0566 6.264H73.6806V13.8C74.2246 13.24 74.8406 12.824 75.5286 12.552C76.2166 12.264 76.9526 12.12 77.7366 12.12C79.3046 12.12 80.4726 12.544 81.2406 13.392C82.0246 14.224 82.4166 15.352 82.4166 16.776V24H78.7926V17.184C78.7926 15.696 78.1046 14.952 76.7286 14.952C76.1206 14.952 75.5526 15.104 75.0246 15.408C74.4966 15.696 74.0486 16.128 73.6806 16.704V24H70.0566V6.264ZM91.4462 24.36C89.2382 24.36 87.5022 23.832 86.2382 22.776C84.9742 21.704 84.3422 20.208 84.3422 18.288C84.3422 16.384 84.9022 14.88 86.0222 13.776C87.1582 12.672 88.7742 12.12 90.8702 12.12C92.2462 12.12 93.4142 12.376 94.3742 12.888C95.3342 13.4 96.0622 14.112 96.5582 15.024C97.0542 15.92 97.3022 16.936 97.3022 18.072V19.536H87.7982C88.0542 21.008 89.4302 21.744 91.9262 21.744C92.6622 21.744 93.4222 21.68 94.2062 21.552C94.9902 21.424 95.6702 21.248 96.2462 21.024V23.568C95.6862 23.808 94.9662 24 94.0862 24.144C93.2062 24.288 92.3262 24.36 91.4462 24.36ZM93.8702 17.184C93.8222 16.416 93.5342 15.824 93.0062 15.408C92.4782 14.976 91.7502 14.76 90.8222 14.76C89.9102 14.76 89.1902 14.976 88.6622 15.408C88.1342 15.84 87.8462 16.432 87.7982 17.184H93.8702ZM104.035 24.36C103.171 24.36 102.243 24.264 101.251 24.072C100.275 23.896 99.5066 23.64 98.9466 23.304V20.472C99.5866 20.856 100.355 21.168 101.251 21.408C102.147 21.648 102.979 21.768 103.747 21.768C104.403 21.768 104.883 21.712 105.187 21.6C105.491 21.488 105.643 21.28 105.643 20.976C105.643 20.736 105.555 20.544 105.379 20.4C105.203 20.24 104.931 20.104 104.563 19.992C104.211 19.864 103.619 19.68 102.787 19.44C101.811 19.152 101.043 18.864 100.483 18.576C99.9386 18.272 99.5226 17.896 99.2346 17.448C98.9626 17 98.8266 16.424 98.8266 15.72C98.8266 14.52 99.2986 13.624 100.243 13.032C101.203 12.424 102.499 12.12 104.131 12.12C104.931 12.12 105.755 12.208 106.603 12.384C107.467 12.544 108.131 12.76 108.595 13.032V15.792C108.131 15.488 107.523 15.24 106.771 15.048C106.035 14.856 105.315 14.76 104.611 14.76C103.955 14.76 103.443 14.824 103.075 14.952C102.723 15.08 102.547 15.32 102.547 15.672C102.547 15.976 102.715 16.208 103.051 16.368C103.403 16.528 104.051 16.728 104.995 16.968L105.475 17.088C106.483 17.36 107.267 17.664 107.827 18C108.387 18.32 108.779 18.712 109.003 19.176C109.243 19.624 109.363 20.192 109.363 20.88C109.363 21.936 108.907 22.784 107.995 23.424C107.083 24.048 105.763 24.36 104.035 24.36ZM115.519 24.36C114.655 24.36 113.727 24.264 112.735 24.072C111.759 23.896 110.991 23.64 110.431 23.304V20.472C111.071 20.856 111.839 21.168 112.735 21.408C113.631 21.648 114.463 21.768 115.231 21.768C115.887 21.768 116.367 21.712 116.671 21.6C116.975 21.488 117.127 21.28 117.127 20.976C117.127 20.736 117.039 20.544 116.863 20.4C116.687 20.24 116.415 20.104 116.047 19.992C115.695 19.864 115.103 19.68 114.271 19.44C113.295 19.152 112.527 18.864 111.967 18.576C111.423 18.272 111.007 17.896 110.719 17.448C110.447 17 110.311 16.424 110.311 15.72C110.311 14.52 110.783 13.624 111.727 13.032C112.687 12.424 113.983 12.12 115.615 12.12C116.415 12.12 117.239 12.208 118.087 12.384C118.951 12.544 119.615 12.76 120.079 13.032V15.792C119.615 15.488 119.007 15.24 118.255 15.048C117.519 14.856 116.799 14.76 116.095 14.76C115.439 14.76 114.927 14.824 114.559 14.952C114.207 15.08 114.031 15.32 114.031 15.672C114.031 15.976 114.199 16.208 114.535 16.368C114.887 16.528 115.535 16.728 116.479 16.968L116.959 17.088C117.967 17.36 118.751 17.664 119.311 18C119.871 18.32 120.263 18.712 120.487 19.176C120.727 19.624 120.847 20.192 120.847 20.88C120.847 21.936 120.391 22.784 119.479 23.424C118.567 24.048 117.247 24.36 115.519 24.36ZM131.381 24.36C129.701 24.36 128.173 23.992 126.797 23.256C125.437 22.52 124.365 21.496 123.581 20.184C122.797 18.856 122.405 17.336 122.405 15.624C122.405 13.912 122.797 12.392 123.581 11.064C124.365 9.736 125.437 8.704 126.797 7.968C128.173 7.232 129.701 6.864 131.381 6.864C133.061 6.864 134.573 7.232 135.917 7.968C137.277 8.704 138.349 9.736 139.133 11.064C139.917 12.392 140.309 13.912 140.309 15.624C140.309 17.336 139.917 18.856 139.133 20.184C138.349 21.496 137.277 22.52 135.917 23.256C134.573 23.992 133.061 24.36 131.381 24.36ZM131.381 21C132.341 21 133.213 20.784 133.997 20.352C134.797 19.904 135.429 19.28 135.893 18.48C136.357 17.664 136.589 16.712 136.589 15.624C136.589 14.552 136.357 13.616 135.893 12.816C135.445 12 134.821 11.376 134.021 10.944C133.237 10.496 132.357 10.272 131.381 10.272C130.389 10.272 129.493 10.496 128.693 10.944C127.909 11.376 127.285 12 126.821 12.816C126.357 13.616 126.125 14.552 126.125 15.624C126.125 16.712 126.357 17.664 126.821 18.48C127.285 19.28 127.917 19.904 128.717 20.352C129.517 20.784 130.405 21 131.381 21ZM142.314 12.48H145.818V13.896C146.346 13.304 146.97 12.864 147.69 12.576C148.426 12.272 149.194 12.12 149.994 12.12C151.562 12.12 152.73 12.544 153.498 13.392C154.282 14.224 154.674 15.352 154.674 16.776V24H151.05V17.184C151.05 15.696 150.362 14.952 148.986 14.952C148.378 14.952 147.81 15.104 147.282 15.408C146.754 15.696 146.306 16.128 145.938 16.704V24H142.314V12.48Z" fill="#ffffff"/>
</svg>
